<svg xmlns="http://www.w3.org/2000/svg" viewBox="0 0 80 80" width="80" height="80">
  <title>蝴蝶 Butterfly</title>
  <g transform="translate(40,40)"><path d="M0,-5 C13,-26 30,-24 26,-5 C30,-2 26,9 17,16 C13,21 4,19 2,16 C-2,12 0,7 0,5Z" fill="#E85D8B" opacity="0.7"/><path d="M0,-5 C-13,-26 -30,-24 -26,-5 C-30,-2 -26,9 -17,16 C-13,21 -4,19 -2,16 C2,12 0,7 0,5Z" fill="#E85D8B" opacity="0.65"/><ellipse cx="0" cy="-2" rx="2.5" ry="8" fill="#1A3C6D"/><path d="M1.5,-2 C2.5,-3 4,-6 6,-8" stroke="#1A3C6D" stroke-width="0.7" fill="none"/><path d="M-1.5,-2 C-2.5,-3 -4,-6 -6,-8" stroke="#1A3C6D" stroke-width="0.7" fill="none"/></g>
</svg>